<svg width="100" height="100" viewBox="0 0 512 512" fill="none" xmlns="http://www.w3.org/2000/svg">
<g id="logo">
<path id="face" d="M139.68 129.61C138.74 131.19 137.83 132.83 136.95 134.5C129.62 148.45 124.45 165.08 120.95 179.5C117.75 192.64 115.95 203.98 115.07 209.91L114.74 212.24C114.57 213.57 114.49 214.29 114.49 214.29C109.851 211.934 104.579 211.128 99.4488 211.992C94.3184 212.857 89.6008 215.344 85.99 219.09C71.37 232.45 92.8 285.41 92.8 285.41C103.9 327.53 128.27 315.84 128.27 315.84C128.27 315.84 112.88 379.79 158.69 425.63C165.26 432.21 171.8 438.83 178.12 445.63C189.01 457.4 205.81 474.26 218.51 481.08C225.417 483.49 232.459 485.493 239.6 487.08C248.741 489.104 258.259 488.626 267.152 485.696C276.045 482.766 283.982 477.492 290.13 470.43C298.33 461.05 309.13 448.05 319.88 433.29C322.81 429.29 325.74 425.12 328.6 420.87C338.6 406.07 347.88 390.13 354.17 374.64C354.198 374.585 354.221 374.528 354.24 374.47L391.74 304.47C393.012 301.683 393.526 298.609 393.23 295.56C392.401 285.754 393.291 275.879 395.86 266.38C401.447 245.386 403.242 223.564 401.16 201.94L401.07 201.05C400.89 199.44 400.7 197.82 400.47 196.18C400.44 196.31 224.4 83.75 139.68 129.61Z" fill="white" stroke="#010101" stroke-linecap="round" stroke-linejoin="round"/>
<g id="shadow">
<path id="cie&#197;&#132;" d="M114.46 213.66C114.46 213.66 114.54 212.94 114.71 211.66L114.15 210.45C114.357 210.014 114.662 209.631 115.04 209.33C115.88 203.4 117.72 192.06 120.92 178.93L136.92 133.93L137.43 134.4C137.502 134.284 137.582 134.174 137.67 134.07L136.92 133.93C141.414 127.293 147.577 121.957 154.789 118.459C162 114.96 170.006 113.422 178 114L181 114.21C192.657 121.013 202.189 130.926 208.53 142.84L210.39 146.33C210.39 146.33 209.88 146.51 208.94 146.8L207.87 147.12L210.39 147.59C194.49 178.78 184.22 211.43 177.83 243.2C177.28 245.93 176.76 248.64 176.27 251.36C157.74 353.31 177.9 443.86 178.11 444.83C171.7 438 165.13 431.68 158.66 425C117.4 382.42 126.87 325.3 128.72 316.13C128.747 316.014 128.742 315.892 128.705 315.779C128.668 315.665 128.6 315.564 128.509 315.486C128.418 315.409 128.307 315.358 128.189 315.339C128.071 315.32 127.951 315.335 127.84 315.38C122.95 317.68 102.84 322.43 92.77 284.78" fill="#E2E2E2"/>
<path id="cie&#197;&#132;_2" d="M92.77 284.78C92.77 284.78 71.33 231.78 85.96 218.46C89.5709 214.714 94.2885 212.227 99.4189 211.362C104.549 210.498 109.822 211.304 114.46 213.66" fill="#E2E2E2"/>
</g>
<path id="contour" d="M139.68 129.61C138.74 131.19 137.83 132.83 136.95 134.5C129.62 148.45 124.45 165.08 120.95 179.5C117.75 192.64 115.95 203.98 115.07 209.91L114.74 212.24C114.57 213.57 114.49 214.29 114.49 214.29C109.851 211.934 104.579 211.128 99.4488 211.992C94.3184 212.857 89.6008 215.344 85.99 219.09C71.37 232.45 92.8 285.41 92.8 285.41C103.9 327.53 128.27 315.84 128.27 315.84C128.27 315.84 112.88 379.79 158.69 425.63C165.26 432.21 171.8 438.83 178.12 445.63C189.01 457.4 205.81 474.26 218.51 481.08C225.417 483.49 232.459 485.493 239.6 487.08C248.741 489.104 258.259 488.626 267.152 485.696C276.045 482.766 283.982 477.492 290.13 470.43C298.33 461.05 309.13 448.05 319.88 433.29C322.81 429.29 325.74 425.12 328.6 420.87C338.6 406.07 347.88 390.13 354.17 374.64C354.198 374.585 354.221 374.528 354.24 374.47L391.74 304.47C393.012 301.683 393.526 298.609 393.23 295.56C392.401 285.754 393.291 275.879 395.86 266.38C401.447 245.386 403.242 223.564 401.16 201.94L401.07 201.05C400.89 199.44 400.7 197.82 400.47 196.18C400.44 196.31 224.4 83.75 139.68 129.61Z" stroke="#010101" stroke-linecap="round" stroke-linejoin="round"/>
<path id="nose" d="M310.16 392.23C310.16 392.23 346.16 391.39 333.46 357.34" stroke="#010101" stroke-linecap="round" stroke-linejoin="round"/>
<path id="mustache" d="M274.6 395.16C282.86 395.16 289.91 396.68 295.26 397.02C299.656 397.28 303.956 398.417 307.907 400.365C311.857 402.312 315.377 405.031 318.26 408.36C321.03 411.59 323.61 414.45 325.56 416.56C328.64 419.86 330.321 424.226 330.25 428.74C330.1 435.43 325.88 435.57 322.2 434.4C319.367 433.457 316.837 431.776 314.87 429.53C294.56 407.11 251.64 416.6 251.64 416.6C251.64 416.6 220.07 422.47 225.82 409.73C226.538 408.184 227.572 406.807 228.855 405.685C230.138 404.564 231.642 403.724 233.27 403.22C241.32 400.66 260.36 395.12 274.6 395.16Z" fill="#010101" stroke="#010101" stroke-width="0.75" stroke-linecap="round" stroke-linejoin="round"/>
<g id="glasses">
<path id="Vector" d="M222.64 314.41C222.64 314.69 222.7 314.97 222.74 315.25C223.396 320.559 225.36 325.621 228.454 329.985C231.549 334.348 235.677 337.875 240.47 340.25C253.47 346.66 276.02 349.71 304.73 321.93C304.73 321.93 343.95 287.84 288.89 269.46C287.68 269.05 285.71 268.34 284.51 267.88C282.757 267.21 280.967 266.639 279.15 266.17C270.513 263.913 261.402 264.249 252.954 267.137C244.507 270.025 237.097 275.337 231.65 282.41C224.578 291.488 221.343 302.976 222.64 314.41Z" fill="white" stroke="#010101" stroke-linecap="round" stroke-linejoin="round"/>
<path id="Vector_2" d="M406.14 333.19L405.64 334.48C393.69 366.71 376 374.48 363.32 375.29C358.018 375.696 352.692 374.914 347.73 373C330.46 363 328.48 344.2 329.81 330.36C330.343 324.804 332.137 319.442 335.057 314.685C337.977 309.928 341.945 305.9 346.658 302.91C351.371 299.92 356.705 298.045 362.253 297.43C367.801 296.815 373.416 297.475 378.67 299.36C379.54 299.67 380.01 299.88 380.01 299.88C385.9 301.964 391.45 304.905 396.48 308.61C410.56 319.41 407 331 406.14 333.19Z" fill="white" stroke="#010101" stroke-linecap="round" stroke-linejoin="round"/>
<path id="Vector_3" d="M300.74 274.31L372.52 297.67" stroke="#010101" stroke-linecap="round" stroke-linejoin="round"/>
<path id="Vector_4" d="M318.27 297.67C318.27 297.67 326.86 294.5 344.17 304.6" stroke="#010101" stroke-linecap="round" stroke-linejoin="round"/>
<path id="Vector_5" d="M235.7 277.79C235.7 277.79 116.37 221.68 114.49 213.94" stroke="#010101" stroke-linecap="round" stroke-linejoin="round"/>
<path id="Vector_6" d="M405.63 333.27C405.46 333.71 405.3 334.13 405.14 334.57C393.19 366.79 374.74 374.46 362.01 374.85H360.36C396.82 347.76 393.06 306.85 393.06 306.85L395.97 308.66C410.05 319.5 406.47 331.1 405.63 333.27Z" fill="#E2E2E2"/>
</g>
<g id="hair">
<g id="hair_2">
<g id="hair_contour">
<mask id="path-13-inside-1" fill="white">
<path d="M137 134.5C136.87 135.07 131.43 159.14 122.27 175.9C122.03 176.32 121.8 176.74 121.56 177.15C121.32 177.56 121.25 177.94 121.03 178.31H120.16C109.307 161.387 104.726 141.197 107.213 121.248C109.699 101.299 119.096 82.8511 133.77 69.11C157.23 47.3 184.65 37.53 186.26 37C186.309 36.9832 186.353 36.9559 186.39 36.92C221.56 6.14 275.11 37.92 278.46 40.01C278.515 40.0345 278.575 40.0472 278.635 40.0472C278.695 40.0472 278.755 40.0345 278.81 40.01C323.43 25.3 371.19 68.21 372.66 69.54C372.681 69.5662 372.709 69.5867 372.74 69.6C426.6 99.05 429.88 138.72 429.94 139.54C436.6 183.7 413.94 197.06 401.36 201.04C401.265 201.071 401.184 201.134 401.129 201.217C401.075 201.301 401.05 201.401 401.06 201.5V201.5C401.068 201.563 401.061 201.627 401.041 201.687C401.021 201.748 400.987 201.803 400.943 201.849C400.899 201.895 400.846 201.93 400.786 201.953C400.727 201.976 400.663 201.985 400.6 201.98L398.67 201.81C373.46 199.45 322.67 190.9 268.97 160.05C268.879 159.998 268.773 159.98 268.67 160C266.67 160.42 245.96 164.2 210.39 148.28C210.39 148.28 184.12 108.28 136.94 134.46"/>
</mask>
<path d="M137 134.5C136.87 135.07 131.43 159.14 122.27 175.9C122.03 176.32 121.8 176.74 121.56 177.15C121.32 177.56 121.25 177.94 121.03 178.31H120.16C109.307 161.387 104.726 141.197 107.213 121.248C109.699 101.299 119.096 82.8511 133.77 69.11C157.23 47.3 184.65 37.53 186.26 37C186.309 36.9832 186.353 36.9559 186.39 36.92C221.56 6.14 275.11 37.92 278.46 40.01C278.515 40.0345 278.575 40.0472 278.635 40.0472C278.695 40.0472 278.755 40.0345 278.81 40.01C323.43 25.3 371.19 68.21 372.66 69.54C372.681 69.5662 372.709 69.5867 372.74 69.6C426.6 99.05 429.88 138.72 429.94 139.54C436.6 183.7 413.94 197.06 401.36 201.04C401.265 201.071 401.184 201.134 401.129 201.217C401.075 201.301 401.05 201.401 401.06 201.5V201.5C401.068 201.563 401.061 201.627 401.041 201.687C401.021 201.748 400.987 201.803 400.943 201.849C400.899 201.895 400.846 201.93 400.786 201.953C400.727 201.976 400.663 201.985 400.6 201.98L398.67 201.81C373.46 199.45 322.67 190.9 268.97 160.05C268.879 159.998 268.773 159.98 268.67 160C266.67 160.42 245.96 164.2 210.39 148.28C210.39 148.28 184.12 108.28 136.94 134.46" fill="#010101"/>
<path d="M122.27 175.9L123.138 176.396L123.143 176.388L123.147 176.38L122.27 175.9ZM121.03 178.31V179.31H121.599L121.89 178.821L121.03 178.31ZM120.16 178.31L119.318 178.85L119.613 179.31H120.16V178.31ZM133.77 69.11L133.089 68.3776L133.086 68.3801L133.77 69.11ZM186.26 37L186.573 37.9499L186.586 37.9455L186.26 37ZM186.39 36.92L185.731 36.1675L185.712 36.1848L185.693 36.2031L186.39 36.92ZM278.46 40.01L277.931 40.8584L277.99 40.8952L278.053 40.9234L278.46 40.01ZM278.635 40.0472L278.635 39.0472L278.635 40.0472ZM278.81 40.01L278.497 39.0603L278.449 39.0761L278.403 39.0966L278.81 40.01ZM372.66 69.54L373.433 68.9059L373.386 68.8484L373.331 68.7985L372.66 69.54ZM372.74 69.6L373.22 68.7226L373.177 68.6992L373.132 68.6801L372.74 69.6ZM429.94 139.54L428.943 139.613L428.945 139.651L428.951 139.689L429.94 139.54ZM401.36 201.04L401.058 200.086L401.046 200.09L401.36 201.04ZM400.6 201.98L400.512 202.976L400.523 202.977L400.6 201.98ZM398.67 201.81L398.577 202.806L398.582 202.806L398.67 201.81ZM268.97 160.05L269.468 159.183L269.465 159.181L268.97 160.05ZM268.67 160L268.483 159.018L268.474 159.019L268.464 159.021L268.67 160ZM210.39 148.28L209.554 148.829L209.715 149.073L209.981 149.193L210.39 148.28ZM136.025 134.278C135.892 134.86 130.477 158.799 121.392 175.42L123.147 176.38C132.383 159.481 137.848 135.28 137.975 134.722L136.025 134.278ZM121.402 175.404C121.147 175.85 120.936 176.236 120.697 176.645L122.423 177.655C122.664 177.244 122.913 176.79 123.138 176.396L121.402 175.404ZM120.697 176.645C120.532 176.927 120.429 177.193 120.356 177.382C120.276 177.586 120.231 177.696 120.17 177.799L121.89 178.821C122.049 178.554 122.149 178.289 122.219 178.108C122.296 177.912 122.348 177.783 122.423 177.655L120.697 176.645ZM121.03 177.31H120.16V179.31H121.03V177.31ZM121.002 177.77C110.275 161.044 105.748 141.089 108.205 121.372L106.22 121.125C103.705 141.306 108.339 161.73 119.318 178.85L121.002 177.77ZM108.205 121.372C110.662 101.655 119.95 83.4213 134.454 69.8399L133.086 68.3801C118.242 82.281 108.736 100.943 106.22 121.125L108.205 121.372ZM134.451 69.8424C157.76 48.1723 185.026 38.4589 186.573 37.9499L185.947 36.0501C184.274 36.6011 156.7 46.4277 133.089 68.3776L134.451 69.8424ZM186.586 37.9455C186.774 37.8807 186.945 37.7754 187.087 37.6369L185.693 36.2031C185.761 36.1364 185.844 36.0857 185.934 36.0546L186.586 37.9455ZM187.049 37.6725C204.278 22.5939 226.058 22.785 244.125 27.1113C262.18 31.4347 276.301 39.8414 277.931 40.8584L278.989 39.1616C277.269 38.0886 262.94 29.5603 244.59 25.1662C226.252 20.775 203.672 20.4661 185.731 36.1675L187.049 37.6725ZM278.053 40.9234C278.236 41.0051 278.434 41.0472 278.635 41.0472L278.635 39.0472C278.715 39.0472 278.794 39.064 278.867 39.0966L278.053 40.9234ZM278.635 41.0472C278.836 41.0472 279.034 41.005 279.217 40.9234L278.403 39.0966C278.476 39.0641 278.555 39.0472 278.635 39.0472L278.635 41.0472ZM279.123 40.9597C301.054 33.7295 323.847 40.6401 341.461 49.6503C359.05 58.6478 371.282 69.6422 371.989 70.2815L373.331 68.7985C372.567 68.1078 360.185 56.9822 342.372 47.8697C324.583 38.7699 301.186 31.5805 278.497 39.0603L279.123 40.9597ZM371.887 70.1741C372.01 70.3247 372.168 70.4434 372.348 70.5198L373.132 68.6801C373.249 68.7301 373.353 68.8076 373.433 68.9059L371.887 70.1741ZM372.26 70.4774C425.738 99.7184 428.899 139.023 428.943 139.613L430.937 139.467C430.86 138.417 427.462 98.3816 373.22 68.7226L372.26 70.4774ZM428.951 139.689C432.253 161.584 428.269 175.692 422.04 184.793C415.801 193.907 407.215 198.139 401.058 200.087L401.662 201.993C408.085 199.961 417.119 195.523 423.69 185.922C430.271 176.308 434.287 161.656 430.929 139.391L428.951 139.689ZM401.046 200.09C400.736 200.193 400.47 200.398 400.292 200.671L401.967 201.764C401.898 201.87 401.794 201.95 401.674 201.99L401.046 200.09ZM400.292 200.671C400.113 200.945 400.033 201.271 400.065 201.596L402.055 201.404C402.068 201.531 402.036 201.657 401.967 201.764L400.292 200.671ZM400.067 201.619C400.057 201.536 400.066 201.451 400.092 201.371L401.989 202.004C402.056 201.804 402.078 201.591 402.053 201.381L400.067 201.619ZM400.092 201.371C400.119 201.291 400.163 201.218 400.221 201.157L401.665 202.541C401.812 202.388 401.922 202.205 401.989 202.004L400.092 201.371ZM400.221 201.157C400.28 201.096 400.351 201.049 400.43 201.019L401.143 202.887C401.341 202.812 401.519 202.693 401.665 202.541L400.221 201.157ZM400.43 201.019C400.508 200.989 400.593 200.976 400.677 200.983L400.523 202.977C400.734 202.993 400.946 202.963 401.143 202.887L400.43 201.019ZM400.688 200.984L398.758 200.814L398.582 202.806L400.512 202.976L400.688 200.984ZM398.763 200.814C373.644 198.463 323.005 189.939 269.468 159.183L268.472 160.917C322.335 191.861 373.276 200.437 398.577 202.806L398.763 200.814ZM269.465 159.181C269.168 159.012 268.82 158.954 268.483 159.018L268.857 160.982C268.726 161.007 268.59 160.985 268.475 160.919L269.465 159.181ZM268.464 159.021C266.662 159.4 246.167 163.197 210.799 147.367L209.981 149.193C245.753 165.203 266.678 161.44 268.876 160.979L268.464 159.021ZM210.39 148.28C211.226 147.731 211.225 147.73 211.225 147.73C211.225 147.729 211.224 147.728 211.223 147.727C211.222 147.726 211.221 147.723 211.219 147.72C211.215 147.714 211.209 147.706 211.202 147.695C211.187 147.673 211.166 147.642 211.139 147.602C211.084 147.522 211.004 147.406 210.898 147.257C210.687 146.96 210.373 146.532 209.959 145.999C209.13 144.933 207.897 143.446 206.27 141.747C203.019 138.353 198.18 134.098 191.832 130.672C179.085 123.793 160.36 120.32 136.455 133.586L137.425 135.334C160.699 122.42 178.7 125.857 190.883 132.433C197 135.734 201.677 139.843 204.826 143.131C206.399 144.773 207.587 146.207 208.38 147.226C208.776 147.736 209.072 148.141 209.269 148.417C209.367 148.555 209.44 148.66 209.487 148.73C209.511 148.765 209.529 148.791 209.54 148.807C209.545 148.816 209.549 148.822 209.552 148.825C209.553 148.827 209.554 148.828 209.554 148.829C209.554 148.829 209.554 148.829 209.554 148.829C209.554 148.829 209.554 148.829 210.39 148.28Z" fill="black" mask="url(#path-13-inside-1)"/>
</g>
<path id="Vector_7" d="M274.16 155.17C274.16 155.17 283.4 53.17 203.67 34.69" stroke="#E2E2E2" stroke-width="4" stroke-linecap="round" stroke-linejoin="round"/>
<path id="Vector_8" d="M332.14 170.62C332.14 170.62 355.59 77.56 284.47 54.11" stroke="#E2E2E2" stroke-width="4" stroke-linecap="round" stroke-linejoin="round"/>
<path id="Vector_9" d="M398.09 175.9C398.09 175.9 416.73 102 360.22 83.32" stroke="#E2E2E2" stroke-width="4" stroke-linecap="round" stroke-linejoin="round"/>
<path id="Vector_10" opacity="0.6" d="M210.25 148C210.25 148 211.25 100.53 156.15 88.38" stroke="#E2E2E2" stroke-width="4" stroke-linecap="round" stroke-linejoin="round"/>
</g>
<path id="Vector_11" d="M120.11 178.3L120.7 179.22L121.2 178.11L120.11 178.3Z" fill="#010101"/>
</g>
</g>
</svg>
